<svg width="170" height="176" viewBox="0 0 170 176" fill="none" xmlns="http://www.w3.org/2000/svg">
<path d="M56.8607 136.606C56.8607 137.294 56.0724 137.844 55.0785 137.844C53.9477 137.947 53.1595 137.397 53.1595 136.606C53.1595 135.919 53.9477 135.369 54.9417 135.369C55.9698 135.266 56.8607 135.816 56.8607 136.606ZM46.2016 135.06C45.9617 135.747 46.6472 136.538 47.6754 136.744C48.5666 137.088 49.5948 136.744 49.8004 136.056C50.006 135.369 49.3548 134.578 48.3266 134.269C47.4355 134.028 46.4416 134.372 46.2016 135.06ZM61.3506 134.475C60.3566 134.716 59.6715 135.369 59.7741 136.16C59.8773 136.847 60.7681 137.294 61.7963 137.053C62.7902 136.812 63.4759 136.16 63.3727 135.472C63.2701 134.819 62.3446 134.372 61.3506 134.475ZM83.9034 2.75C36.3649 2.75 0 38.9469 0 86.6247C0 124.747 23.9234 157.369 58.0946 168.85C62.4819 169.64 64.0241 166.925 64.0241 164.69C64.0241 162.56 63.9215 150.803 63.9215 143.584C63.9215 143.584 39.9294 148.74 34.8911 133.34C34.8911 133.34 30.9839 123.338 25.3629 120.76C25.3629 120.76 17.5141 115.362 25.9113 115.466C25.9113 115.466 34.4456 116.153 39.1411 124.334C46.6472 137.603 59.2259 133.788 64.1273 131.519C64.9155 126.019 67.1434 122.203 69.6107 119.934C50.4516 117.803 31.121 115.019 31.121 81.95C31.121 72.4967 33.7258 67.7533 39.2097 61.7033C38.3186 59.4686 35.4052 50.2562 40.1008 38.3625C47.2641 36.1281 63.75 47.6438 63.75 47.6438C70.6046 45.7188 77.9738 44.7219 85.2741 44.7219C92.5744 44.7219 99.9437 45.7188 106.798 47.6438C106.798 47.6438 123.284 36.0938 130.448 38.3625C135.143 50.2906 132.23 59.4686 131.339 61.7033C136.822 67.7876 140.182 72.5314 140.182 81.95C140.182 115.122 119.994 117.769 100.835 119.934C103.988 122.65 106.661 127.806 106.661 135.884C106.661 147.469 106.558 161.803 106.558 164.622C106.558 166.856 108.135 169.572 112.488 168.781C146.762 157.369 170 124.747 170 86.6247C170 38.9469 131.442 2.75 83.9034 2.75ZM33.3145 121.31C32.869 121.653 32.9718 122.444 33.5544 123.097C34.1028 123.647 34.8911 123.888 35.3367 123.44C35.7822 123.097 35.6794 122.306 35.0968 121.653C34.5484 121.103 33.7601 120.862 33.3145 121.31ZM29.6129 118.525C29.373 118.972 29.7157 119.522 30.4012 119.866C30.9496 120.21 31.6351 120.106 31.875 119.625C32.1149 119.178 31.7722 118.628 31.0867 118.284C30.4012 118.078 29.8528 118.181 29.6129 118.525ZM40.7178 130.762C40.1694 131.21 40.375 132.24 41.1633 132.894C41.9516 133.684 42.9456 133.788 43.3911 133.238C43.8367 132.79 43.631 131.76 42.9456 131.106C42.1916 130.316 41.1633 130.212 40.7178 130.762ZM36.8105 125.71C36.2621 126.053 36.2621 126.947 36.8105 127.738C37.3589 128.528 38.2843 128.872 38.7298 128.528C39.2782 128.081 39.2782 127.188 38.7298 126.397C38.25 125.606 37.3589 125.262 36.8105 125.71Z" fill="url(#paint0_linear_84_21)"/>
<defs>
<linearGradient id="paint0_linear_84_21" x1="47" y1="47" x2="85" y2="127.5" gradientUnits="userSpaceOnUse">
<stop stop-color="#CF3A39"/>
<stop offset="1" stop-color="#F55D44" stop-opacity="0.63"/>
</linearGradient>
</defs>
</svg>
