<svg width="102" height="100" viewBox="0 0 102 100" fill="none" xmlns="http://www.w3.org/2000/svg">
<path d="M51.0222 27.5391C36.8258 27.5391 25.3749 37.5586 25.3749 49.9805C25.3749 62.4023 36.8258 72.4219 51.0222 72.4219C65.2186 72.4219 76.6695 62.4023 76.6695 49.9805C76.6695 37.5586 65.2186 27.5391 51.0222 27.5391ZM51.0222 64.5703C41.8481 64.5703 34.3481 58.0273 34.3481 49.9805C34.3481 41.9336 41.8258 35.3906 51.0222 35.3906C60.2186 35.3906 67.6963 41.9336 67.6963 49.9805C67.6963 58.0273 60.1963 64.5703 51.0222 64.5703V64.5703ZM83.7008 26.6211C83.7008 29.5312 81.0222 31.8555 77.7187 31.8555C74.3928 31.8555 71.7365 29.5117 71.7365 26.6211C71.7365 23.7305 74.4151 21.3867 77.7187 21.3867C81.0222 21.3867 83.7008 23.7305 83.7008 26.6211ZM100.687 31.9336C100.308 24.9219 98.4776 18.7109 92.607 13.5937C86.7588 8.47656 79.6606 6.875 71.6472 6.52344C63.3883 6.11328 38.6338 6.11328 30.3749 6.52344C22.3838 6.85547 15.2856 8.45703 9.41507 13.5742C3.54454 18.6914 1.7365 24.9023 1.33472 31.9141C0.865967 39.1406 0.865967 60.8008 1.33472 68.0273C1.71418 75.0391 3.54454 81.25 9.41507 86.3672C15.2856 91.4844 22.3615 93.0859 30.3749 93.4375C38.6338 93.8477 63.3883 93.8477 71.6472 93.4375C79.6606 93.1055 86.7588 91.5039 92.607 86.3672C98.4553 81.25 100.286 75.0391 100.687 68.0273C101.156 60.8008 101.156 39.1602 100.687 31.9336V31.9336ZM90.0178 75.7812C88.2767 79.6094 84.9062 82.5586 80.5088 84.1016C73.924 86.3867 58.299 85.8594 51.0222 85.8594C43.7454 85.8594 28.0981 86.3672 21.5356 84.1016C17.1606 82.5781 13.7901 79.6289 12.0267 75.7812C9.41507 70.0195 10.0178 56.3477 10.0178 49.9805C10.0178 43.6133 9.4374 29.9219 12.0267 24.1797C13.7678 20.3516 17.1383 17.4023 21.5356 15.8594C28.1204 13.5742 43.7454 14.1016 51.0222 14.1016C58.299 14.1016 73.9463 13.5937 80.5088 15.8594C84.8838 17.3828 88.2544 20.332 90.0178 24.1797C92.6294 29.9414 92.0267 43.6133 92.0267 49.9805C92.0267 56.3477 92.6294 70.0391 90.0178 75.7812Z" fill="#BAD9C8"/>
</svg>
