<svg width="301" height="344" viewBox="0 0 301 344" fill="none" xmlns="http://www.w3.org/2000/svg">
<g id="linkedin 1">
<path id="Vector" d="M279.5 21.5H21.4328C9.60781 21.5 0 31.2422 0 43.2016V300.798C0 312.758 9.60781 322.5 21.4328 322.5H279.5C291.325 322.5 301 312.758 301 300.798V43.2016C301 31.2422 291.325 21.5 279.5 21.5ZM90.9719 279.5H46.3594V135.853H91.0391V279.5H90.9719ZM68.6656 116.234C54.3547 116.234 42.7984 104.611 42.7984 90.3672C42.7984 76.1234 54.3547 64.5 68.6656 64.5C82.9094 64.5 94.5328 76.1234 94.5328 90.3672C94.5328 104.678 82.9766 116.234 68.6656 116.234V116.234ZM258.202 279.5H213.589V209.625C213.589 192.963 213.253 171.53 190.409 171.53C167.162 171.53 163.602 189.67 163.602 208.416V279.5H118.989V135.853H161.788V155.472H162.392C168.372 144.184 182.952 132.292 204.653 132.292C249.803 132.292 258.202 162.056 258.202 200.756V279.5V279.5Z" fill="#BAD9C8"/>
</g>
</svg>
