<svg width="1980" height="1080" viewBox="0 0 1980 1080" fill="none" xmlns="http://www.w3.org/2000/svg">
<rect width="1980" height="1080" fill="#8F5F30"/>
<path fill-rule="evenodd" clip-rule="evenodd" d="M786.493 738C856.552 738 926.611 681.564 926.611 601.775C926.611 545.338 864.953 465.549 786.493 465.549C708.034 465.549 658.052 529.77 646.376 601.775C646.376 677.01 685.297 738 786.493 738ZM756.372 550.577C761.714 546.83 768.513 545.338 778.41 545.338C794.196 545.338 804.877 548.294 812.391 553.736C819.922 559.189 823.986 566.933 826.962 575.86C833.526 595.554 833.892 609.063 831.586 619.233C829.659 627.733 825.864 633.799 822.678 638.891C822.073 639.858 821.489 640.79 820.945 641.697C814.094 653.115 801.231 658.669 788.547 659.424C775.926 660.175 762.92 656.209 755.581 647.865C731.555 623.797 732.063 590.781 743.586 567.818C747.49 560.038 751.076 554.291 756.372 550.577Z" fill="#050303"/>
<path d="M1027.81 697.132L887.689 459.711L975.263 446.088L1060.89 607.613L1068.67 551.176L1006.4 440.25L1082.3 432.466L1111.49 500.578L1123.16 426.627L1197.12 413.005L1167.92 533.662L1191.28 586.206L1228.25 409.113L1315.83 395.49L1247.71 665.995L1171.82 677.672L1123.16 586.206L1103.7 689.348L1027.81 697.132Z" fill="#050303"/>
<path d="M1378.1 656.265L1331.4 352.676L1424.81 341L1459.84 595.936C1467.3 613.3 1472.1 621.77 1490.97 615.397L1512.38 605.667L1533.79 671.833L1504.6 687.402C1477.28 695.657 1463.27 697.126 1432.59 699.078C1399.05 695.071 1385.89 683.51 1378.1 656.265Z" fill="#050303"/>
<path d="M507.714 396.713C498.933 394.058 495.797 394.832 487.017 396.713C461.558 402.169 448.996 427.618 448.758 431.836C448.519 436.055 445.932 446.014 447.503 454.415C451.626 473.592 457.688 481.641 475.727 490.793L503.324 517.762L484.508 535.324V558.53C487.793 567.627 491.059 571.236 500.188 574.21H574.197V562.293C574.958 555.219 571.163 552.38 564.162 546.613L556.008 545.986L572.943 529.052H606.811C620.04 524.383 623.424 518.227 625 503.337L529.666 408.63C522.083 401.622 517.233 399.592 507.714 396.713Z" fill="#F98849" stroke="black" stroke-width="12"/>
<path fill-rule="evenodd" clip-rule="evenodd" d="M462.384 437.258C461.638 440.511 462.384 445.979 462.384 445.979C462.384 445.979 467.388 456.673 475.677 459.683H491.131L491.8 447.225C492.326 444.985 493.802 444.615 495.657 444.149C495.708 444.136 495.759 444.123 495.811 444.11C497.739 443.625 498.95 443.473 501.159 444.11C503.964 444.92 504.181 446.073 504.389 447.179C504.401 447.24 504.412 447.302 504.424 447.363V460.443L519.878 460.306C527.943 456.968 529.085 454.372 531.036 449.936C531.306 449.323 531.591 448.675 531.912 447.985C532.028 447.507 532.144 447.042 532.256 446.589C533.453 441.773 534.335 438.222 532.502 433.668C529.75 428.823 524.289 424.817 520.469 423.069C515.043 420.587 509.104 421.201 505.093 422.309L499.154 427.292L491.131 422.309C483.322 420.991 480.508 421.251 476.424 422.309C469.168 423.774 464.538 430.696 462.384 437.258Z" fill="black"/>
<path d="M491.131 459.683H475.677C467.388 456.673 462.384 445.979 462.384 445.979C462.384 445.979 461.638 440.511 462.384 437.258C464.538 430.696 469.168 423.774 476.424 422.309C480.508 421.251 483.322 420.991 491.131 422.309L499.154 427.292L505.093 422.309C509.104 421.201 515.043 420.587 520.469 423.069C524.289 424.817 529.75 428.823 532.502 433.668C534.335 438.222 533.453 441.773 532.256 446.589C532.144 447.042 532.028 447.507 531.912 447.985C531.591 448.675 531.306 449.323 531.036 449.936C529.085 454.372 527.943 456.968 519.878 460.306L504.424 460.443M491.131 459.683L491.8 447.225C492.326 444.985 493.802 444.615 495.657 444.149C495.708 444.136 495.759 444.123 495.811 444.11C497.739 443.625 498.95 443.473 501.159 444.11C503.964 444.92 504.181 446.073 504.389 447.179C504.401 447.24 504.412 447.302 504.424 447.363V460.443M491.131 459.683L499.154 471.518L504.424 460.443" stroke="#FCF6F6"/>
</svg>
