<svg width="100" height="100" viewBox="0 0 100 100" fill="none" xmlns="http://www.w3.org/2000/svg">
<path d="M50 1.5625C22.3857 1.5625 0 23.2486 0 50C0 76.7514 22.3857 98.4375 50 98.4375C77.6143 98.4375 100 76.7514 100 50C100 23.2486 77.6143 1.5625 50 1.5625ZM73.1758 34.5039C72.4234 42.1631 69.1675 60.7496 67.5105 69.3281C66.8097 72.9578 65.4294 74.175 64.0935 74.2939C61.1903 74.5529 58.9851 72.4352 56.1728 70.6492C51.7722 67.8547 49.2861 66.115 45.0143 63.3881C40.0778 60.2367 43.278 58.5053 46.0913 55.6732C46.8276 54.9324 59.621 43.6596 59.8685 42.6369C59.8994 42.509 59.929 42.0314 59.6359 41.7807C59.3427 41.5299 58.9121 41.6148 58.6006 41.683C58.1593 41.7801 51.1292 46.2816 37.5103 55.1873C35.515 56.5146 33.7076 57.1614 32.0881 57.1275C30.3028 57.0902 26.8688 56.1498 24.3157 55.3457C21.1845 54.3598 18.6958 53.8385 18.9125 52.1639C19.0254 51.2915 20.2653 50.3995 22.6323 49.4881C37.2083 43.336 46.928 39.28 51.7911 37.3201C65.6766 31.725 68.5619 30.7531 70.4425 30.7207C70.8562 30.7141 71.781 30.8133 72.38 31.2842C72.7785 31.6196 73.0325 32.0877 73.0917 32.5959C73.1932 33.2269 73.2214 33.8669 73.1758 34.5039V34.5039Z" fill="#BAD9C8"/>
</svg>
