<svg width="470" height="365" viewBox="0 0 470 365" fill="none" xmlns="http://www.w3.org/2000/svg">
<g filter="url(#filter0_d_141_11)">
<rect x="88.2356" y="36.844" width="379" height="283" rx="12" transform="rotate(5.80367 88.2356 36.844)" fill="#F2EFEA" fill-opacity="0.99"/>
<path d="M87.0222 48.7825C87.6923 42.189 93.5806 37.3873 100.174 38.0574L453.166 73.9359C459.759 74.6061 464.561 80.4944 463.891 87.0878L442.049 301.981L65.1802 263.675L87.0222 48.7825Z" fill="#02C8DC"/>
<path d="M80.0242 283.277L77.3448 283.004L78.2273 274.322L81.0254 274.606C81.8676 274.692 82.5707 274.939 83.1345 275.348C83.6987 275.753 84.1075 276.296 84.3611 276.976C84.615 277.653 84.6963 278.44 84.6049 279.339C84.513 280.244 84.2727 281.006 83.8842 281.626C83.4959 282.243 82.9759 282.696 82.3241 282.984C81.6726 283.269 80.906 283.366 80.0242 283.277ZM78.491 282.179L80.0511 282.337C80.769 282.41 81.3781 282.332 81.8782 282.103C82.3784 281.874 82.7703 281.516 83.0541 281.028C83.3378 280.54 83.5156 279.942 83.5874 279.236C83.6587 278.535 83.6055 277.92 83.428 277.391C83.2508 276.859 82.9485 276.434 82.521 276.116C82.0938 275.796 81.5411 275.601 80.8628 275.532L79.1839 275.361L78.491 282.179ZM87.6907 284.21C87.278 284.168 86.9114 284.052 86.5909 283.863C86.2707 283.67 86.0267 283.416 85.859 283.099C85.6916 282.779 85.6295 282.407 85.6726 281.983C85.7105 281.61 85.8147 281.315 85.9852 281.099C86.156 280.879 86.3711 280.715 86.6305 280.607C86.8899 280.499 87.1713 280.428 87.4747 280.393C87.7812 280.356 88.0876 280.333 88.3941 280.324C88.7949 280.313 89.1196 280.308 89.3681 280.307C89.6197 280.304 89.8053 280.276 89.925 280.223C90.0475 280.169 90.1169 280.062 90.1333 279.901L90.1367 279.867C90.1792 279.449 90.0978 279.112 89.8924 278.857C89.6899 278.602 89.3582 278.452 88.8975 278.405C88.4199 278.356 88.0348 278.423 87.7422 278.604C87.4496 278.786 87.2361 278.99 87.1018 279.216L86.1866 278.78C86.3964 278.402 86.6538 278.117 86.9588 277.925C87.267 277.731 87.5937 277.607 87.9389 277.553C88.2873 277.498 88.6254 277.486 88.9533 277.52C89.1624 277.541 89.4001 277.591 89.6662 277.669C89.9355 277.745 90.1896 277.872 90.4284 278.051C90.6701 278.229 90.8601 278.481 90.9983 278.807C91.1366 279.132 91.1795 279.553 91.1269 280.071L90.6908 284.361L89.6903 284.259L89.7799 283.377L89.729 283.372C89.6468 283.507 89.5184 283.646 89.3438 283.791C89.1691 283.936 88.9446 284.052 88.6703 284.138C88.3959 284.225 88.0694 284.249 87.6907 284.21ZM87.9346 283.327C88.3303 283.367 88.6717 283.323 88.9589 283.195C89.2488 283.068 89.4756 282.888 89.639 282.656C89.8053 282.425 89.9023 282.173 89.9299 281.902L90.0229 280.986C89.9754 281.033 89.8774 281.07 89.7289 281.098C89.5836 281.123 89.4161 281.142 89.2264 281.154C89.0398 281.163 88.8577 281.171 88.6802 281.175C88.5058 281.178 88.3641 281.18 88.2553 281.184C87.9918 281.191 87.7432 281.222 87.5093 281.275C87.2785 281.326 87.0863 281.419 86.9326 281.555C86.782 281.688 86.6938 281.882 86.6679 282.136C86.6326 282.484 86.7345 282.76 86.9736 282.964C87.2158 283.165 87.5361 283.286 87.9346 283.327ZM96.0109 278.323L95.9247 279.17L92.55 278.827L92.6362 277.98L96.0109 278.323ZM93.7783 276.519L94.7789 276.621L94.148 282.828C94.1193 283.11 94.1387 283.326 94.2063 283.476C94.277 283.623 94.375 283.727 94.5001 283.789C94.6283 283.847 94.7659 283.884 94.9129 283.899C95.0231 283.91 95.1142 283.914 95.186 283.91C95.2581 283.903 95.3157 283.897 95.359 283.893L95.4711 284.813C95.4007 284.831 95.3034 284.847 95.1793 284.86C95.0549 284.876 94.8995 284.874 94.7129 284.855C94.4303 284.827 94.1595 284.738 93.9005 284.589C93.6443 284.44 93.4399 284.232 93.2871 283.965C93.1371 283.699 93.0814 283.376 93.1199 282.997L93.7783 276.519ZM99.5005 285.393C98.8731 285.33 98.3459 285.136 97.919 284.813C97.4952 284.487 97.1858 284.062 96.9908 283.536C96.7989 283.009 96.7368 282.411 96.8046 281.744C96.8724 281.077 97.0537 280.502 97.3484 280.018C97.6463 279.531 98.0288 279.167 98.4959 278.926C98.9661 278.683 99.4952 278.591 100.083 278.651C100.422 278.685 100.751 278.776 101.071 278.922C101.39 279.069 101.672 279.283 101.918 279.565C102.163 279.845 102.346 280.2 102.465 280.632C102.583 281.064 102.612 281.583 102.55 282.191L102.507 282.615L97.4875 282.105L97.5754 281.24L101.578 281.647C101.615 281.279 101.575 280.944 101.457 280.641C101.342 280.338 101.159 280.089 100.907 279.895C100.659 279.702 100.353 279.586 99.9917 279.55C99.5932 279.509 99.2383 279.573 98.9271 279.741C98.619 279.907 98.3713 280.139 98.1839 280.437C97.9966 280.735 97.8847 281.063 97.8482 281.422L97.7896 281.999C97.7396 282.49 97.782 282.916 97.9168 283.275C98.0548 283.632 98.2673 283.915 98.5545 284.124C98.8419 284.33 99.1877 284.454 99.5919 284.495C99.8547 284.521 100.096 284.509 100.315 284.457C100.538 284.402 100.734 284.308 100.905 284.174C101.076 284.037 101.215 283.86 101.323 283.643L102.262 284.012C102.127 284.33 101.927 284.601 101.661 284.825C101.396 285.046 101.08 285.208 100.713 285.311C100.345 285.411 99.9414 285.438 99.5005 285.393Z" fill="black"/>
<path d="M82.8877 296.909L82.0052 305.591L80.9877 305.488L76.9493 298.19L76.8645 298.181L76.1716 304.999L75.1202 304.892L76.0027 296.209L77.0202 296.313L81.0738 303.629L81.1586 303.638L81.8532 296.804L82.8877 296.909ZM85.8741 306.139C85.4615 306.097 85.0949 305.981 84.7743 305.792C84.4541 305.599 84.2101 305.344 84.0425 305.028C83.8751 304.708 83.8129 304.336 83.856 303.912C83.8939 303.539 83.9981 303.244 84.1687 303.027C84.3395 302.808 84.5546 302.644 84.814 302.536C85.0734 302.428 85.3548 302.357 85.6581 302.322C85.9646 302.285 86.2711 302.261 86.5775 302.253C86.9784 302.242 87.3031 302.236 87.5515 302.236C87.8031 302.233 87.9887 302.205 88.1084 302.151C88.2309 302.098 88.3003 301.991 88.3167 301.83L88.3201 301.796C88.3627 301.378 88.2812 301.041 88.0759 300.786C87.8733 300.531 87.5417 300.38 87.081 300.333C86.6033 300.285 86.2182 300.351 85.9256 300.533C85.633 300.715 85.4196 300.918 85.2852 301.145L84.37 300.709C84.5798 300.331 84.8372 300.045 85.1423 299.854C85.4504 299.659 85.7771 299.536 86.1224 299.482C86.4707 299.426 86.8088 299.415 87.1367 299.448C87.3458 299.469 87.5835 299.519 87.8497 299.598C88.1189 299.674 88.373 299.801 88.6119 299.979C88.8535 300.158 89.0435 300.41 89.1818 300.735C89.3201 301.061 89.3629 301.482 89.3103 301.999L88.8743 306.29L87.8737 306.188L87.9634 305.306L87.9125 305.301C87.8303 305.435 87.7019 305.575 87.5272 305.72C87.3526 305.865 87.1281 305.981 86.8537 306.067C86.5794 306.153 86.2528 306.177 85.8741 306.139ZM86.1181 305.256C86.5138 305.296 86.8552 305.252 87.1423 305.124C87.4323 304.997 87.659 304.817 87.8225 304.585C87.9888 304.354 88.0857 304.102 88.1133 303.831L88.2064 302.915C88.1588 302.962 88.0608 302.999 87.9124 303.027C87.767 303.052 87.5995 303.07 87.4098 303.083C87.2232 303.092 87.0412 303.099 86.8636 303.104C86.6892 303.106 86.5476 303.109 86.4387 303.112C86.1753 303.12 85.9266 303.15 85.6927 303.204C85.462 303.254 85.2698 303.348 85.116 303.483C84.9654 303.616 84.8772 303.81 84.8514 304.065C84.816 304.412 84.9179 304.688 85.157 304.892C85.3992 305.094 85.7196 305.215 86.1181 305.256ZM90.7004 306.475L91.3623 299.963L92.3289 300.062L92.2255 301.079L92.3103 301.088C92.4813 300.754 92.7278 300.506 93.0497 300.345C93.372 300.18 93.7451 300.12 94.169 300.163C94.5986 300.207 94.9462 300.34 95.2119 300.565C95.4806 300.786 95.6779 301.079 95.8037 301.443L95.8715 301.45C96.0724 301.13 96.3497 300.889 96.7033 300.725C97.0572 300.558 97.4674 300.498 97.9337 300.546C98.5159 300.605 98.9736 300.835 99.3068 301.238C99.6403 301.637 99.7681 302.22 99.6903 302.986L99.2473 307.344L98.2468 307.242L98.6897 302.884C98.7386 302.404 98.6421 302.047 98.4002 301.814C98.1583 301.581 97.8593 301.446 97.5032 301.41C97.0453 301.363 96.6765 301.466 96.3968 301.717C96.1174 301.966 95.9563 302.301 95.9135 302.722L95.4826 306.961L94.4651 306.858L94.9184 302.398C94.9561 302.028 94.8663 301.717 94.649 301.467C94.432 301.213 94.1342 301.067 93.7554 301.029C93.4954 301.003 93.2453 301.047 93.0051 301.163C92.7678 301.278 92.5674 301.452 92.4039 301.684C92.2435 301.913 92.1471 302.188 92.1146 302.507L91.701 306.577L90.7004 306.475ZM103.793 307.943C103.166 307.879 102.638 307.686 102.212 307.363C101.788 307.037 101.478 306.611 101.283 306.086C101.091 305.558 101.029 304.961 101.097 304.294C101.165 303.627 101.346 303.051 101.641 302.567C101.939 302.081 102.321 301.717 102.789 301.476C103.259 301.232 103.788 301.141 104.376 301.2C104.715 301.235 105.044 301.325 105.363 301.472C105.682 301.619 105.965 301.833 106.21 302.115C106.456 302.394 106.638 302.75 106.757 303.181C106.876 303.613 106.905 304.133 106.843 304.741L106.8 305.165L101.78 304.654L101.868 303.79L105.87 304.196C105.907 303.829 105.867 303.494 105.75 303.19C105.635 302.887 105.452 302.639 105.2 302.445C104.951 302.251 104.646 302.136 104.284 302.099C103.886 302.059 103.531 302.123 103.22 302.291C102.912 302.457 102.664 302.688 102.477 302.986C102.289 303.284 102.177 303.613 102.141 303.972L102.082 304.548C102.032 305.04 102.075 305.465 102.209 305.825C102.347 306.181 102.56 306.464 102.847 306.673C103.135 306.88 103.48 307.003 103.884 307.044C104.147 307.071 104.388 307.058 104.608 307.006C104.83 306.952 105.027 306.858 105.198 306.724C105.369 306.587 105.508 306.41 105.616 306.192L106.555 306.562C106.42 306.879 106.22 307.15 105.954 307.375C105.689 307.596 105.372 307.758 105.005 307.861C104.638 307.96 104.234 307.988 103.793 307.943ZM114.015 308.982C113.427 308.922 112.925 308.73 112.51 308.405C112.097 308.08 111.792 307.654 111.595 307.126C111.4 306.597 111.337 305.997 111.405 305.324C111.474 304.646 111.657 304.066 111.955 303.586C112.255 303.105 112.639 302.747 113.109 302.512C113.581 302.277 114.111 302.19 114.699 302.25C115.287 302.309 115.787 302.502 116.199 302.826C116.615 303.151 116.92 303.579 117.114 304.11C117.311 304.641 117.376 305.246 117.307 305.924C117.238 306.597 117.054 307.172 116.754 307.65C116.457 308.128 116.073 308.484 115.6 308.719C115.131 308.954 114.602 309.042 114.015 308.982ZM114.106 308.083C114.553 308.129 114.932 308.051 115.243 307.852C115.555 307.652 115.799 307.373 115.975 307.014C116.151 306.655 116.262 306.258 116.306 305.823C116.35 305.387 116.322 304.975 116.222 304.585C116.122 304.195 115.939 303.869 115.674 303.608C115.41 303.347 115.054 303.194 114.608 303.148C114.161 303.103 113.782 303.182 113.47 303.384C113.158 303.586 112.914 303.869 112.737 304.23C112.56 304.592 112.45 304.991 112.406 305.426C112.361 305.861 112.39 306.273 112.49 306.66C112.591 307.047 112.774 307.37 113.039 307.628C113.304 307.886 113.659 308.038 114.106 308.083ZM122.068 303.084L121.982 303.932L118.472 303.575L118.558 302.728L122.068 303.084ZM118.947 309.346L119.701 301.936C119.738 301.563 119.858 301.261 120.058 301.03C120.259 300.799 120.505 300.635 120.798 300.539C121.09 300.443 121.392 300.411 121.703 300.443C121.949 300.468 122.147 300.508 122.299 300.563C122.45 300.619 122.562 300.667 122.635 300.709L122.259 301.545C122.21 301.522 122.141 301.494 122.053 301.459C121.968 301.425 121.854 301.401 121.71 301.386C121.379 301.352 121.132 301.411 120.968 301.563C120.807 301.715 120.71 301.953 120.677 302.275L119.948 309.448L118.947 309.346ZM125.918 312.522L126.828 303.568L127.795 303.666L127.689 304.701L127.808 304.713C127.893 304.607 128.01 304.473 128.157 304.311C128.308 304.147 128.514 304.008 128.774 303.894C129.037 303.778 129.38 303.742 129.804 303.785C130.353 303.841 130.822 304.027 131.212 304.344C131.603 304.66 131.89 305.082 132.073 305.609C132.257 306.136 132.314 306.741 132.244 307.425C132.174 308.115 131.996 308.701 131.71 309.183C131.424 309.662 131.06 310.019 130.616 310.254C130.173 310.486 129.68 310.574 129.137 310.519C128.719 310.477 128.391 310.373 128.153 310.209C127.916 310.042 127.739 309.863 127.621 309.671C127.504 309.476 127.415 309.316 127.353 309.19L127.268 309.181L126.918 312.624L125.918 312.522ZM127.481 306.924C127.431 307.416 127.459 307.857 127.565 308.248C127.671 308.635 127.852 308.949 128.107 309.189C128.363 309.427 128.691 309.566 129.093 309.606C129.511 309.649 129.871 309.574 130.173 309.382C130.479 309.188 130.721 308.91 130.901 308.548C131.083 308.184 131.198 307.77 131.245 307.307C131.292 306.849 131.263 306.429 131.159 306.047C131.058 305.663 130.878 305.349 130.617 305.105C130.359 304.859 130.018 304.715 129.594 304.672C129.187 304.63 128.835 304.699 128.537 304.877C128.239 305.052 128.001 305.316 127.822 305.67C127.644 306.02 127.53 306.438 127.481 306.924ZM133.441 310.819L134.103 304.308L135.07 304.406L134.97 305.389L135.038 305.396C135.189 305.086 135.43 304.847 135.762 304.677C136.093 304.508 136.454 304.444 136.844 304.483C136.917 304.491 137.009 304.502 137.119 304.516C137.229 304.53 137.312 304.542 137.368 304.554L137.264 305.571C137.231 305.559 137.155 305.539 137.035 305.509C136.918 305.477 136.793 305.455 136.661 305.441C136.344 305.409 136.055 305.447 135.792 305.554C135.533 305.659 135.32 305.82 135.152 306.038C134.988 306.252 134.89 306.506 134.861 306.8L134.442 310.921L133.441 310.819ZM140.317 311.655C139.729 311.596 139.227 311.403 138.812 311.078C138.399 310.754 138.094 310.327 137.897 309.799C137.702 309.271 137.639 308.67 137.707 307.998C137.776 307.319 137.959 306.74 138.257 306.259C138.557 305.778 138.941 305.42 139.411 305.185C139.883 304.951 140.413 304.863 141.001 304.923C141.589 304.983 142.089 305.175 142.501 305.5C142.917 305.824 143.222 306.252 143.416 306.783C143.613 307.314 143.678 307.919 143.609 308.598C143.54 309.27 143.356 309.845 143.056 310.323C142.759 310.801 142.375 311.158 141.902 311.393C141.433 311.628 140.904 311.715 140.317 311.655ZM140.408 310.757C140.855 310.802 141.234 310.725 141.545 310.525C141.857 310.326 142.101 310.046 142.277 309.687C142.453 309.328 142.564 308.931 142.608 308.496C142.652 308.061 142.624 307.648 142.524 307.258C142.424 306.868 142.241 306.543 141.976 306.281C141.712 306.02 141.356 305.867 140.91 305.822C140.463 305.776 140.084 305.855 139.772 306.057C139.46 306.26 139.216 306.542 139.039 306.904C138.862 307.266 138.752 307.664 138.708 308.099C138.663 308.535 138.692 308.946 138.792 309.333C138.893 309.72 139.076 310.043 139.341 310.301C139.606 310.559 139.961 310.711 140.408 310.757ZM145.47 305.463L146.471 305.565L145.761 312.551C145.72 312.953 145.615 313.293 145.447 313.573C145.281 313.853 145.052 314.06 144.759 314.193C144.468 314.326 144.114 314.371 143.695 314.329C143.661 314.325 143.627 314.322 143.594 314.319C143.56 314.315 143.526 314.312 143.492 314.308L143.587 313.376C143.621 313.379 143.652 313.382 143.68 313.385C143.708 313.388 143.739 313.391 143.773 313.394C144.078 313.426 144.311 313.358 144.471 313.191C144.63 313.028 144.726 312.78 144.76 312.45L145.47 305.463ZM146.072 304.428C145.877 304.408 145.716 304.324 145.588 304.177C145.463 304.03 145.41 303.863 145.429 303.677C145.448 303.49 145.533 303.338 145.685 303.219C145.84 303.1 146.015 303.051 146.21 303.071C146.405 303.091 146.565 303.174 146.69 303.321C146.818 303.468 146.872 303.635 146.854 303.822C146.835 304.008 146.748 304.161 146.593 304.279C146.441 304.398 146.267 304.447 146.072 304.428ZM150.358 312.676C149.73 312.612 149.203 312.419 148.776 312.095C148.353 311.77 148.043 311.344 147.848 310.819C147.656 310.291 147.594 309.694 147.662 309.027C147.73 308.36 147.911 307.784 148.206 307.3C148.504 306.814 148.886 306.45 149.353 306.209C149.824 305.965 150.353 305.874 150.94 305.933C151.28 305.968 151.609 306.058 151.928 306.205C152.247 306.352 152.529 306.566 152.775 306.848C153.021 307.127 153.203 307.483 153.322 307.914C153.441 308.346 153.469 308.866 153.408 309.474L153.364 309.898L148.345 309.387L148.433 308.523L152.435 308.929C152.472 308.562 152.432 308.227 152.314 307.923C152.2 307.62 152.016 307.372 151.765 307.178C151.516 306.984 151.211 306.869 150.849 306.832C150.451 306.792 150.096 306.855 149.784 307.024C149.476 307.189 149.229 307.421 149.041 307.719C148.854 308.017 148.742 308.345 148.706 308.704L148.647 309.281C148.597 309.773 148.639 310.198 148.774 310.558C148.912 310.914 149.125 311.197 149.412 311.406C149.699 311.612 150.045 311.736 150.449 311.777C150.712 311.804 150.953 311.791 151.173 311.739C151.395 311.685 151.592 311.591 151.763 311.457C151.934 311.32 152.073 311.143 152.181 310.925L153.12 311.295C152.985 311.612 152.784 311.883 152.519 312.107C152.254 312.329 151.937 312.491 151.57 312.594C151.203 312.693 150.799 312.721 150.358 312.676ZM157.222 313.374C156.611 313.312 156.1 313.114 155.689 312.781C155.277 312.448 154.978 312.016 154.792 311.486C154.606 310.956 154.546 310.366 154.612 309.716C154.679 309.055 154.86 308.483 155.155 308.002C155.452 307.518 155.835 307.156 156.302 306.915C156.772 306.672 157.301 306.58 157.889 306.64C158.347 306.686 158.751 306.813 159.101 307.02C159.451 307.227 159.728 307.495 159.932 307.824C160.135 308.153 160.245 308.524 160.26 308.936L159.259 308.835C159.213 308.53 159.07 308.25 158.831 307.995C158.594 307.736 158.256 307.585 157.815 307.54C157.425 307.5 157.072 307.567 156.758 307.741C156.446 307.912 156.19 308.173 155.988 308.524C155.79 308.872 155.666 309.292 155.616 309.784C155.565 310.287 155.6 310.733 155.72 311.122C155.843 311.512 156.04 311.824 156.31 312.06C156.583 312.296 156.917 312.435 157.313 312.475C157.573 312.501 157.814 312.48 158.035 312.411C158.256 312.342 158.449 312.23 158.613 312.076C158.777 311.921 158.902 311.728 158.989 311.497L159.989 311.599C159.894 311.978 159.718 312.31 159.464 312.595C159.212 312.878 158.895 313.091 158.512 313.235C158.132 313.376 157.702 313.422 157.222 313.374ZM164.753 307.423L164.666 308.271L161.292 307.928L161.378 307.08L164.753 307.423ZM162.52 305.62L163.521 305.721L162.89 311.928C162.861 312.211 162.881 312.427 162.948 312.576C163.019 312.724 163.117 312.828 163.242 312.889C163.37 312.948 163.508 312.985 163.655 312.999C163.765 313.011 163.856 313.014 163.928 313.01C164 313.003 164.058 312.998 164.101 312.993L164.213 313.913C164.143 313.931 164.045 313.947 163.921 313.96C163.797 313.976 163.641 313.975 163.455 313.956C163.172 313.927 162.901 313.838 162.642 313.689C162.386 313.54 162.182 313.332 162.029 313.066C161.879 312.799 161.823 312.476 161.862 312.098L162.52 305.62Z" fill="black"/>
<rect x="377.656" y="304.482" width="48" height="24" rx="12" transform="rotate(5.80367 377.656 304.482)" fill="#1F1F1F"/>
<path d="M388.074 314.862L389.909 322.432L390.011 322.443L393.331 315.396L394.433 315.508L390.363 323.866L389.277 323.756L386.972 314.75L388.074 314.862ZM394.768 324.314L395.43 317.802L396.43 317.904L395.768 324.416L394.768 324.314ZM396.049 316.769C395.854 316.749 395.692 316.665 395.564 316.518C395.439 316.371 395.386 316.204 395.405 316.018C395.424 315.831 395.51 315.679 395.662 315.56C395.817 315.441 395.991 315.392 396.186 315.412C396.382 315.432 396.542 315.515 396.666 315.662C396.794 315.809 396.849 315.976 396.83 316.163C396.811 316.349 396.724 316.502 396.569 316.62C396.417 316.739 396.244 316.788 396.049 316.769ZM400.317 325.015C399.69 324.951 399.163 324.758 398.736 324.435C398.312 324.109 398.002 323.683 397.807 323.158C397.616 322.63 397.553 322.033 397.621 321.366C397.689 320.699 397.87 320.123 398.165 319.639C398.463 319.153 398.845 318.789 399.313 318.548C399.783 318.305 400.312 318.213 400.9 318.273C401.239 318.307 401.568 318.398 401.887 318.544C402.206 318.691 402.489 318.905 402.734 319.187C402.98 319.466 403.162 319.822 403.281 320.254C403.4 320.685 403.429 321.205 403.367 321.813L403.324 322.237L398.304 321.727L398.392 320.862L402.394 321.269C402.432 320.901 402.391 320.566 402.274 320.263C402.159 319.96 401.976 319.711 401.724 319.517C401.475 319.323 401.17 319.208 400.808 319.171C400.41 319.131 400.055 319.195 399.744 319.363C399.436 319.529 399.188 319.76 399.001 320.058C398.813 320.356 398.701 320.685 398.665 321.044L398.606 321.62C398.556 322.112 398.599 322.538 398.734 322.897C398.871 323.253 399.084 323.536 399.371 323.745C399.659 323.952 400.004 324.075 400.409 324.116C400.671 324.143 400.913 324.131 401.132 324.079C401.355 324.024 401.551 323.93 401.722 323.796C401.893 323.659 402.032 323.482 402.14 323.264L403.079 323.634C402.944 323.952 402.744 324.222 402.478 324.447C402.213 324.668 401.897 324.83 401.529 324.933C401.162 325.033 400.758 325.06 400.317 325.015ZM406.025 325.458L404.702 318.745L405.754 318.852L406.655 323.98L406.722 323.987L408.62 319.143L409.688 319.251L410.557 324.36L410.625 324.367L412.537 319.541L413.588 319.648L410.942 325.958L409.959 325.858L409.043 320.711L408.941 320.7L407.008 325.558L406.025 325.458Z" fill="white"/>
<rect x="4" y="80.0767" width="379" height="283" rx="12" transform="rotate(-12.1976 4 80.0767)" fill="#F2EFEA" fill-opacity="0.99"/>
<path d="M6.53541 91.8058C5.13514 85.328 9.2513 78.9415 15.7291 77.5413L362.763 2.52506C369.241 1.12479 375.627 5.24094 377.027 11.7187L422.665 222.842L52.1727 302.93L6.53541 91.8058Z" fill="#1F1F1F"/>
<path d="M72.3477 316.984L69.7153 317.553L67.8714 309.023L70.6204 308.429C71.4479 308.25 72.1929 308.268 72.8554 308.482C73.5173 308.693 74.0739 309.083 74.5251 309.651C74.9757 310.216 75.2965 310.941 75.4874 311.824C75.6794 312.712 75.6865 313.511 75.5086 314.221C75.3301 314.928 74.9754 315.519 74.4445 315.995C73.913 316.467 73.2141 316.797 72.3477 316.984ZM70.5502 316.414L72.083 316.082C72.7883 315.93 73.3434 315.667 73.7483 315.295C74.1532 314.923 74.4152 314.461 74.5342 313.909C74.6533 313.357 74.6378 312.734 74.4877 312.04C74.3389 311.351 74.0982 310.783 73.7659 310.334C73.4329 309.883 73.0141 309.572 72.5094 309.402C72.0041 309.23 71.4183 309.215 70.7519 309.359L69.1024 309.716L70.5502 316.414ZM80.7235 315.313C80.1071 315.446 79.5459 315.425 79.04 315.25C78.5363 315.071 78.1106 314.762 77.7627 314.323C77.4171 313.88 77.1734 313.331 77.0318 312.676C76.8901 312.02 76.8847 311.417 77.0154 310.865C77.1484 310.311 77.3997 309.847 77.7695 309.473C78.1415 309.096 78.6162 308.845 79.1938 308.72C79.527 308.648 79.8681 308.633 80.2169 308.674C80.5658 308.715 80.9006 308.831 81.2212 309.023C81.5412 309.213 81.8244 309.495 82.0709 309.869C82.3174 310.243 82.5052 310.728 82.6343 311.325L82.7243 311.742L77.7928 312.808L77.6091 311.958L81.541 311.108C81.463 310.747 81.3211 310.44 81.1155 310.188C80.9127 309.936 80.6617 309.756 80.3625 309.649C80.066 309.542 79.7401 309.527 79.3847 309.603C78.9931 309.688 78.6754 309.859 78.4314 310.115C78.1896 310.368 78.0256 310.665 77.9395 311.006C77.8534 311.347 77.8485 311.694 77.9247 312.047L78.0472 312.613C78.1516 313.096 78.3235 313.488 78.5627 313.788C78.8041 314.084 79.0937 314.288 79.4314 314.398C79.7685 314.505 80.1356 314.516 80.5326 314.43C80.7909 314.374 81.0163 314.288 81.209 314.171C81.4038 314.05 81.5617 313.9 81.6826 313.719C81.8029 313.536 81.8807 313.325 81.916 313.085L82.9233 313.146C82.8929 313.49 82.7862 313.809 82.6029 314.105C82.4191 314.397 82.1684 314.649 81.8507 314.86C81.5324 315.069 81.1567 315.219 80.7235 315.313ZM88.4928 306.798L87.51 313.707L86.5103 313.923L82.7616 308.036L83.8278 307.806L86.6959 312.522L86.7625 312.508L87.4265 307.028L88.4928 306.798Z" fill="black"/>
<path d="M74.3635 339.056L72.5196 330.526L77.6344 329.421L77.8325 330.337L73.7506 331.219L74.3737 334.102L78.0724 333.302L78.2704 334.218L74.5718 335.018L75.3965 338.833L74.3635 339.056ZM81.0455 337.612L79.6625 331.214L80.6122 331.009L80.8211 331.975L80.8877 331.961C80.9359 331.619 81.0914 331.317 81.3543 331.054C81.6171 330.79 81.9401 330.617 82.3233 330.535C82.3955 330.519 82.486 330.501 82.5949 330.48C82.7038 330.46 82.7866 330.446 82.8434 330.44L83.0595 331.439C83.0243 331.438 82.9453 331.442 82.8223 331.451C82.7015 331.457 82.5758 331.474 82.4453 331.502C82.1343 331.569 81.8707 331.695 81.6546 331.878C81.4406 332.058 81.2874 332.277 81.195 332.535C81.1048 332.79 81.0909 333.062 81.1533 333.351L82.0285 337.4L81.0455 337.612ZM87.8427 336.282C87.2651 336.407 86.7287 336.379 86.2333 336.199C85.7407 336.017 85.3188 335.706 84.9676 335.264C84.6192 334.822 84.3735 334.271 84.2307 333.61C84.0866 332.944 84.0816 332.336 84.2158 331.787C84.3527 331.237 84.608 330.778 84.9818 330.409C85.3583 330.04 85.8354 329.793 86.4129 329.668C86.9905 329.543 87.5256 329.571 88.0182 329.753C88.5136 329.933 88.9358 330.246 89.2848 330.691C89.6366 331.135 89.8845 331.69 90.0286 332.357C90.1714 333.018 90.1741 333.622 90.0366 334.169C89.9018 334.715 89.6462 335.173 89.2697 335.542C88.8959 335.911 88.4203 336.157 87.8427 336.282ZM87.6518 335.399C88.0905 335.304 88.4272 335.114 88.6618 334.828C88.8964 334.542 89.0422 334.201 89.099 333.805C89.1558 333.409 89.138 332.997 89.0456 332.569C88.9532 332.142 88.799 331.758 88.5831 331.418C88.3672 331.078 88.093 330.825 87.7606 330.658C87.4281 330.492 87.0425 330.456 86.6038 330.551C86.1651 330.646 85.8287 330.838 85.5947 331.127C85.3607 331.416 85.2156 331.759 85.1593 332.158C85.1031 332.557 85.1212 332.97 85.2136 333.398C85.3061 333.825 85.4599 334.208 85.6752 334.545C85.8905 334.882 86.1641 335.132 86.4959 335.296C86.8278 335.46 87.2131 335.494 87.6518 335.399ZM92.3644 331.137L93.1963 334.985L92.2133 335.198L90.8304 328.8L91.78 328.595L91.9961 329.595L92.0794 329.577C92.1592 329.219 92.3304 328.909 92.5933 328.646C92.8555 328.38 93.2282 328.195 93.7113 328.09C94.1445 327.997 94.5427 328.004 94.906 328.111C95.2687 328.216 95.5791 328.428 95.837 328.747C96.0943 329.063 96.2818 329.494 96.3994 330.038L97.2782 334.103L96.2952 334.316L95.4309 330.317C95.3222 329.814 95.1071 329.451 94.7854 329.227C94.4632 329 94.0744 328.936 93.619 329.035C93.3052 329.102 93.0395 329.231 92.8217 329.421C92.6068 329.609 92.4567 329.85 92.3715 330.141C92.2863 330.433 92.284 330.765 92.3644 331.137ZM100.474 326.716L100.654 327.549L97.3384 328.265L97.1583 327.432L100.474 326.716ZM97.7933 325.691L98.7763 325.478L100.094 331.576C100.154 331.854 100.24 332.053 100.35 332.175C100.463 332.293 100.588 332.362 100.726 332.381C100.866 332.397 101.009 332.39 101.153 332.359C101.261 332.335 101.349 332.311 101.416 332.284C101.482 332.256 101.535 332.232 101.575 332.215L101.966 333.055C101.905 333.094 101.817 333.139 101.703 333.19C101.59 333.244 101.442 333.29 101.258 333.33C100.981 333.39 100.696 333.389 100.403 333.327C100.114 333.265 99.8549 333.131 99.6272 332.924C99.4022 332.717 99.2495 332.427 99.169 332.055L97.7933 325.691ZM106.767 332.052L104.924 323.522L110.072 322.409L110.27 323.325L106.155 324.215L106.778 327.097L110.626 326.265L110.824 327.181L106.976 328.013L107.602 330.912L111.784 330.008L111.982 330.925L106.767 332.052ZM113.795 326.504L114.627 330.353L113.644 330.565L112.261 324.168L113.211 323.962L113.427 324.962L113.51 324.944C113.59 324.587 113.761 324.277 114.024 324.013C114.286 323.747 114.659 323.562 115.142 323.458C115.575 323.364 115.974 323.371 116.337 323.479C116.7 323.583 117.01 323.795 117.268 324.114C117.525 324.431 117.713 324.861 117.83 325.405L118.709 329.471L117.726 329.683L116.862 325.685C116.753 325.182 116.538 324.819 116.216 324.595C115.894 324.368 115.505 324.304 115.05 324.402C114.736 324.47 114.47 324.598 114.253 324.788C114.038 324.977 113.888 325.217 113.802 325.509C113.717 325.8 113.715 326.132 113.795 326.504ZM122.95 328.693C122.417 328.809 121.917 328.776 121.45 328.595C120.983 328.411 120.581 328.097 120.244 327.652C119.906 327.205 119.664 326.642 119.517 325.965C119.372 325.293 119.361 324.685 119.485 324.141C119.609 323.597 119.847 323.146 120.2 322.787C120.552 322.429 120.998 322.192 121.537 322.076C121.953 321.985 122.297 321.984 122.569 322.07C122.843 322.154 123.062 322.269 123.228 322.416C123.396 322.56 123.528 322.68 123.624 322.775L123.707 322.757L123.026 319.608L124.009 319.396L125.853 327.926L124.904 328.132L124.691 327.149L124.575 327.174C124.528 327.306 124.457 327.475 124.362 327.682C124.266 327.886 124.11 328.084 123.893 328.276C123.675 328.465 123.361 328.605 122.95 328.693ZM122.892 327.782C123.287 327.696 123.598 327.522 123.825 327.257C124.052 326.99 124.197 326.658 124.259 326.261C124.321 325.861 124.3 325.419 124.195 324.936C124.092 324.459 123.932 324.056 123.716 323.728C123.499 323.397 123.233 323.161 122.918 323.019C122.602 322.876 122.244 322.847 121.844 322.933C121.428 323.023 121.104 323.205 120.872 323.479C120.643 323.75 120.498 324.082 120.438 324.475C120.38 324.866 120.4 325.286 120.497 325.736C120.595 326.191 120.754 326.59 120.973 326.932C121.195 327.271 121.467 327.52 121.789 327.68C122.114 327.837 122.481 327.87 122.892 327.782Z" fill="black"/>
<rect x="361.963" y="245.172" width="48" height="24" rx="12" transform="rotate(-12.1976 361.963 245.172)" fill="#1F1F1F"/>
<path d="M375.079 251.824L379.164 258.457L379.264 258.435L380.244 250.707L381.327 250.473L380.039 259.68L378.973 259.911L373.996 252.058L375.079 251.824ZM384.367 258.745L382.984 252.347L383.967 252.135L385.349 258.532L384.367 258.745ZM383.253 251.173C383.061 251.214 382.882 251.185 382.715 251.084C382.551 250.983 382.449 250.841 382.409 250.658C382.369 250.474 382.404 250.303 382.511 250.143C382.622 249.982 382.773 249.881 382.965 249.84C383.156 249.799 383.334 249.828 383.499 249.929C383.666 250.03 383.769 250.172 383.809 250.355C383.848 250.538 383.813 250.71 383.702 250.871C383.594 251.031 383.444 251.131 383.253 251.173ZM389.861 257.697C389.245 257.83 388.683 257.809 388.178 257.633C387.674 257.454 387.248 257.145 386.9 256.706C386.555 256.263 386.311 255.714 386.169 255.059C386.028 254.404 386.022 253.8 386.153 253.249C386.286 252.694 386.537 252.23 386.907 251.857C387.279 251.48 387.754 251.229 388.331 251.104C388.665 251.032 389.006 251.016 389.354 251.057C389.703 251.098 390.038 251.215 390.359 251.407C390.679 251.596 390.962 251.878 391.208 252.252C391.455 252.626 391.643 253.112 391.772 253.709L391.862 254.125L386.93 255.191L386.747 254.341L390.679 253.491C390.601 253.13 390.459 252.824 390.253 252.572C390.05 252.319 389.799 252.14 389.5 252.033C389.204 251.925 388.878 251.91 388.522 251.987C388.131 252.072 387.813 252.242 387.569 252.498C387.327 252.751 387.163 253.048 387.077 253.389C386.991 253.731 386.986 254.077 387.062 254.43L387.185 254.997C387.289 255.48 387.461 255.871 387.7 256.171C387.942 256.468 388.231 256.671 388.569 256.781C388.906 256.889 389.273 256.899 389.67 256.814C389.928 256.758 390.154 256.671 390.347 256.554C390.541 256.433 390.699 256.283 390.82 256.103C390.94 255.92 391.018 255.708 391.054 255.468L392.061 255.53C392.03 255.873 391.924 256.193 391.74 256.488C391.557 256.781 391.306 257.033 390.988 257.244C390.67 257.452 390.294 257.603 389.861 257.697ZM395.426 256.354L392.094 250.378L393.127 250.155L395.568 254.754L395.635 254.739L395.942 249.546L396.992 249.319L399.397 253.909L399.463 253.894L399.791 248.714L400.824 248.491L400.258 255.31L399.291 255.519L396.829 250.906L396.729 250.928L396.392 256.145L395.426 256.354Z" fill="white"/>
</g>
<defs>
<filter id="filter0_d_141_11" x="0" y="0" width="469.293" height="364.718" filterUnits="userSpaceOnUse" color-interpolation-filters="sRGB">
<feFlood flood-opacity="0" result="BackgroundImageFix"/>
<feColorMatrix in="SourceAlpha" type="matrix" values="0 0 0 0 0 0 0 0 0 0 0 0 0 0 0 0 0 0 127 0" result="hardAlpha"/>
<feOffset dy="4"/>
<feGaussianBlur stdDeviation="2"/>
<feComposite in2="hardAlpha" operator="out"/>
<feColorMatrix type="matrix" values="0 0 0 0 0 0 0 0 0 0 0 0 0 0 0 0 0 0 0.25 0"/>
<feBlend mode="normal" in2="BackgroundImageFix" result="effect1_dropShadow_141_11"/>
<feBlend mode="normal" in="SourceGraphic" in2="effect1_dropShadow_141_11" result="shape"/>
</filter>
</defs>
</svg>
