<svg width="333" height="344" viewBox="0 0 333 344" fill="none" xmlns="http://www.w3.org/2000/svg">
<path d="M111.38 267.003C111.38 268.347 109.836 269.422 107.889 269.422C105.674 269.623 104.13 268.548 104.13 267.003C104.13 265.659 105.674 264.584 107.621 264.584C109.635 264.383 111.38 265.458 111.38 267.003ZM90.5008 263.98C90.0309 265.323 91.3736 266.869 93.3877 267.272C95.1333 267.944 97.1474 267.272 97.5502 265.928C97.953 264.584 96.6774 263.039 94.6633 262.434C92.9177 261.964 90.9708 262.636 90.5008 263.98ZM120.175 262.838C118.228 263.308 116.886 264.584 117.087 266.13C117.289 267.473 119.034 268.347 121.048 267.877C122.995 267.406 124.338 266.13 124.136 264.786C123.935 263.509 122.122 262.636 120.175 262.838ZM164.352 5.375C71.2325 5.375 0 76.1234 0 169.312C0 243.823 46.8617 307.584 113.797 330.025C122.391 331.57 125.412 326.263 125.412 321.895C125.412 317.73 125.211 294.752 125.211 280.642C125.211 280.642 78.2147 290.72 68.3456 260.62C68.3456 260.62 60.6919 241.069 49.6815 236.03C49.6815 236.03 34.3071 225.481 50.7556 225.683C50.7556 225.683 67.4728 227.027 76.6706 243.017C91.3736 268.952 116.013 261.494 125.614 257.059C127.158 246.309 131.522 238.852 136.355 234.417C98.8258 230.252 60.9605 224.809 60.9605 160.175C60.9605 141.698 66.0629 132.427 76.8048 120.602C75.0593 116.234 69.3526 98.2281 78.5504 74.9812C92.5821 70.6141 124.875 93.1219 124.875 93.1219C138.302 89.3594 152.737 87.4109 167.037 87.4109C181.337 87.4109 195.772 89.3594 209.199 93.1219C209.199 93.1219 241.492 70.5469 255.524 74.9812C264.722 98.2953 259.015 116.234 257.269 120.602C268.011 132.494 274.591 141.766 274.591 160.175C274.591 225.011 235.047 230.184 197.517 234.417C203.694 239.725 208.931 249.803 208.931 265.592C208.931 288.234 208.729 316.252 208.729 321.761C208.729 326.128 211.818 331.436 220.344 329.891C287.481 307.584 333 243.823 333 169.312C333 76.1234 257.471 5.375 164.352 5.375ZM65.2573 237.105C64.3845 237.777 64.5859 239.322 65.7272 240.598C66.8014 241.673 68.3456 242.144 69.2183 241.27C70.0911 240.598 69.8897 239.053 68.7484 237.777C67.6742 236.702 66.13 236.231 65.2573 237.105ZM58.0065 231.662C57.5365 232.536 58.2079 233.611 59.5506 234.283C60.6248 234.955 61.9675 234.753 62.4375 233.812C62.9075 232.939 62.2361 231.864 60.8933 231.192C59.5506 230.789 58.4764 230.991 58.0065 231.662ZM79.7589 255.581C78.6847 256.455 79.0875 258.47 80.6317 259.747C82.1758 261.292 84.1228 261.494 84.9956 260.419C85.8683 259.545 85.4655 257.53 84.1228 256.253C82.6458 254.708 80.6317 254.506 79.7589 255.581ZM72.1052 245.705C71.0311 246.377 71.0311 248.123 72.1052 249.669C73.1794 251.214 74.9921 251.886 75.8649 251.214C76.9391 250.341 76.9391 248.594 75.8649 247.048C74.925 245.503 73.1794 244.831 72.1052 245.705Z" fill="#BAD9C8"/>
</svg>
